# xmcd
#
# Track frame offsets:
#       150
#       15258
#       34224
#       72576
#       90562
#       106829
#       123312
#       132589
#       141728
#       162164
#       182332
#       199385
#       220172
#       242688
#
# Disc length: 3428 seconds
#
# Revision: 0
# Processed by: cddbd v1.5.2PL0 Copyright (c) Steve Scherf et al.
# Submitted via: CD-DA_X-Tractor v0.23
#
DISCID=c90d620e
DTITLE=Black Cat Bone - The early years CD1
DYEAR=2003
DGENRE=Blues Rock
TTITLE0=Sagebock Boogie
TTITLE1=Without You I Can Make It
TTITLE2=Worried Dream Blues
TTITLE3=Pack It Up
TTITLE4=Slide Rider
TTITLE5=Woke Up This Morning
TTITLE6=Greece
TTITLE7=Mandolin Boogie
TTITLE8=Running The Highway
TTITLE9=Semm'r jetzt drei
TTITLE10=Net daß i di net gern hätt
TTITLE11=So a Glück
TTITLE12=Manchmal morgens
TTITLE13=I denk wirklich gern an di
EXTD=
EXTT0=
EXTT1=
EXTT2=
EXTT3=
EXTT4=
EXTT5=
EXTT6=
EXTT7=
EXTT8=
EXTT9=
EXTT10=
EXTT11=
EXTT12=
EXTT13=
PLAYORDER=
